# xmcd
#
# Track frame offsets:
#	150
#	6380
#	37875
#	66604
#	104279
#	130208
#	193315
#	242535
#
# Disc length: 4057 seconds
#
# Revision: 1
# Processed by: cddbd v1.5.2PL0 Copyright (c) Steve Scherf et al.
# Submitted via: audiograbber 1.83.01
#
DISCID=6f0fd708
DTITLE=Grateful dead - 95-04-05 BJCC Coliseum, Birmingham AL
DYEAR=1900
DGENRE=
TTITLE0=Tuning
TTITLE1=Here Comes Sunshine
TTITLE2=Long Way To Go Home
TTITLE3=Truckin'
TTITLE4=That Would Be Something
TTITLE5=Uncle John's Band
TTITLE6=Matilda Matilda
TTITLE7=Drums
EXTD=
EXTT0=
EXTT1=
EXTT2=
EXTT3=
EXTT4=
EXTT5=
EXTT6=
EXTT7=
PLAYORDER=
